@startuml
    interface Device 
    class PC 
    class Laptop
    class Phone 
    Device <|.. PC
    Device <|.. Laptop
    Device <|.. Phone

    interface Product
    class ConcreteProduct 

    Product <|-- ConcreteProduct 

    interface Creator {
        + factoryMethod()
    }
    class ConcreteCreator {
        + factoryMethod()
    }
    Creator <|-- ConcreteCreator
    ConcreteProduct <-left- ConcreteCreator
@enduml